<svg xmlns="http://www.w3.org/2000/svg" width="17" height="17" fill="none" viewBox="0 0 17 17">
    <path fill="#000" d="M14 7.337V16H3V7.337h1.833V4.525c0-.542.093-1.05.28-1.527.186-.476.444-.892.773-1.248.33-.356.716-.637 1.16-.842C7.49.702 7.975.6 8.5.6c.52 0 1.003.102 1.447.308.444.205.833.486 1.167.842.334.356.592.772.773 1.248.182.477.275.985.28 1.527v2.812H14zm-8.25 0h5.5V4.525c0-.406-.07-.787-.208-1.143-.138-.356-.33-.672-.573-.948-.243-.275-.534-.488-.873-.639-.34-.15-.705-.228-1.096-.233-.391 0-.754.078-1.089.233-.334.156-.625.369-.873.64-.248.27-.442.583-.58.94-.139.355-.208.739-.208 1.15v2.812zm7.333.963H3.917v6.737h9.166V8.3z"/>
    <path stroke="#000" d="M8.5 10.5v2.2"/>
</svg>
